# xmcd CD database file
#
# Track frame offsets:
#	150
#	15460
#	31012
#	52202
#	67777
#	81567
#	102380
#	123307
#	147107
#
# Disc length: 2167 seconds
#
# Revision: 0
# Processed by: cddbd v1.4PL0 Copyright (c) Steve Scherf et al.
# Submitted via: CDex 1.51
#
DISCID=72087509
DTITLE=Masayuki Takayanagi - The Smile I Love
DYEAR=1966
DGENRE=Jazz
TTITLE0=The Smile I Love
TTITLE1=Joy Wltz
TTITLE2=A Sentimental Reason
TTITLE3=Flower Girl
TTITLE4=Blues For Narcissus
TTITLE5=Ascension
TTITLE6=Obsession
TTITLE7=Genesis
TTITLE8=Tan
EXTD=YEAR: 1966
EXTT0=
EXTT1=
EXTT2=
EXTT3=
EXTT4=
EXTT5=
EXTT6=
EXTT7=
EXTT8=
PLAYORDER=
